<svg xmlns="http://www.w3.org/2000/svg"><defs><font id="SourceSansPro" horiz-adv-x="521"><font-face font-family="Source Sans Pro" panose-1="2 11 5 3 3 4 3 2 2 4" ascent="984" descent="-273" alphabetic="0"/><glyph glyph-name="space" horiz-adv-x="200"/><glyph unicode="!" glyph-name="exclam" horiz-adv-x="289" d="m116 198-11 378-2 94h83l-2-94-11-378h-57Zm29-210q-25 0-42 17T85 50q0 29 17 46t43 18q24 0 41-17t18-47q0-27-17-44t-42-18Z"/><glyph unicode="&quot;" glyph-name="quotedbl" horiz-adv-x="426" d="M99 431 83 598l-3 92h88l-3-92-16-167H99Zm177 0-16 167-3 92h88l-3-92-16-167h-50Z"/><glyph unicode="#" glyph-name="numbersign" horiz-adv-x="497" d="m90 0 25 204H35v57h87l18 148H55v58h92l23 183h53l-23-183h133l24 183h53l-24-183h81v-58h-87l-18-148h85v-57h-92L330 0h-53l24 204H169L144 0H90Zm86 261h132l18 148H194l-18-148Z"/><glyph unicode="$" glyph-name="dollar" horiz-adv-x="497" d="M222-110v99q-48 5-93 26T52 66l38 57q32-28 70-47t85-20q56 0 83 28t28 75q0 41-20 67t-52 45-67 36-68 39-52 54-20 81q0 67 40 111t105 55v101h60v-99q48-5 81-26t61-50l-44-49q-28 27-54 42t-68 15q-46 0-73-26t-27-70q0-36 20-59t52-41 67-34 68-39 52-58 20-89q0-71-42-117T282-9v-101h-60Z"/><glyph unicode="%" glyph-name="percent" horiz-adv-x="824" d="M184 254q-67 0-108 54T35 462q0 98 41 152t108 54q67 0 108-54t41-152q0-100-41-154t-108-54Zm0 51q38 0 62 39t24 118q0 78-24 116t-62 39q-39 0-63-38T97 462q0-78 24-117t63-40Zm19-317 362 680h56L259-12h-56Zm438 0q-67 0-108 54t-41 154q0 98 41 152t108 54q67 0 108-54t41-152q0-100-41-154T641-12Zm0 51q38 0 62 39t24 118q0 78-24 116t-62 39q-39 0-63-38t-24-117q0-78 24-117t63-40Z"/><glyph unicode="&amp;" glyph-name="ampersand" horiz-adv-x="609" d="M189 514q0-27 8-56t23-59q45 30 78 62t34 76q0 29-14 50t-48 22q-37 0-59-27t-22-68Zm43-526q-59 0-104 23T57 76t-25 94q0 44 18 78t48 61 63 50q-20 41-31 79t-12 75q0 44 19 79t53 55 80 21q61 0 95-36t34-94q0-43-22-77t-55-62-71-55q32-50 76-97t90-87q30 41 53 89t39 105h77q-19-64-47-123t-68-112q34-23 65-39t58-24l-22-68q-34 10-72 28t-79 47q-37-34-84-54T232-12ZM112 175q0-55 37-88t92-33q34 0 65 14t60 39q-48 42-92 92t-80 103q-34-28-58-58t-24-69Z"/><glyph unicode="'" glyph-name="quotesingle" horiz-adv-x="249" d="M99 431 83 598l-3 92h88l-3-92-16-167H99Z"/><glyph unicode="(" glyph-name="parenleft" horiz-adv-x="303" d="M214-176Q152-75 117 35T82 278q0 132 35 243t97 211l51-24q-58-95-86-205t-29-225q0-114 28-224t87-206l-51-24Z"/><glyph unicode=")" glyph-name="parenright" horiz-adv-x="303" d="m89-176-51 24q58 95 86 205t29 225q0 114-28 224T38 708l51 24q62-100 97-211t35-243q0-132-35-242T89-176Z"/><glyph unicode="*" glyph-name="asterisk" horiz-adv-x="418" d="m138 420-40 29 57 94-97 40 15 46 102-25 9 108h49l9-107 103 24 15-46-97-40 56-94-39-29-71 86-71-86Z"/><glyph unicode="+" glyph-name="plus" horiz-adv-x="497" d="M216 104v195H34v62h182v195h65V361h182v-62H281V104h-65Z"/><glyph unicode="," glyph-name="comma" horiz-adv-x="249" d="m67-170-20 48q43 19 67 50t23 72q-2-1-5-1t-5 0q-24 0-41 14T68 56q0 27 18 42t43 16q32 0 50-26t19-71q0-64-35-112t-96-75Z"/><glyph unicode="-" glyph-name="hyphen" horiz-adv-x="311" d="M41 219v63h230v-63H41Z"/><glyph unicode="." glyph-name="period" horiz-adv-x="249" d="M125-12q-25 0-42 17T65 50q0 29 17 46t43 18q24 0 41-17t18-47q0-27-17-44t-42-18Z"/><glyph unicode="/" glyph-name="slash" horiz-adv-x="350" d="m10-160 267 870h60L70-160H10Z"/><glyph unicode="0" glyph-name="zero" horiz-adv-x="497" d="M249-12q-96 0-150 86T44 321q0 161 54 245t151 84q95 0 149-84t55-245q0-160-54-246T249-12Zm0 66q56 0 90 63t34 204q0 140-34 201t-90 62q-56 0-90-61t-35-202q0-140 34-203t91-64Z"/><glyph unicode="1" glyph-name="one" horiz-adv-x="497" d="M79 0v68h146v470H109v53q44 8 76 19t59 28h63V68h132V0H79Z"/><glyph unicode="2" glyph-name="two" horiz-adv-x="497" d="M40 0v49q96 96 163 168t102 131 35 110q0 55-30 90t-91 35q-40 0-74-22t-62-55l-47 47q40 44 85 70t108 27q89 0 140-51t51-137q0-60-33-121t-92-129T160 65q26 2 54 4t53 2h185V0H40Z"/><glyph unicode="3" glyph-name="three" horiz-adv-x="497" d="M236-12q-76 0-127 27T26 78l42 54q29-30 68-53t95-23q58 0 95 32t37 85q0 38-19 66t-64 45-121 16v63q68 0 107 16t57 43 17 60q0 47-29 74t-81 27q-40 0-73-18t-63-47l-44 52q37 35 82 57t101 23q83 0 137-42t54-120q0-58-32-95t-84-57v-4q58-13 98-54t40-108q0-56-28-97t-75-63-107-22Z"/><glyph unicode="4" glyph-name="four" horiz-adv-x="497" d="M104 242h200v185q0 26 2 62t3 61h-4q-12-23-25-45t-27-45L104 242ZM304 0v176H17v54l273 408h92V242h87v-66h-87V0h-78Z"/><glyph unicode="5" glyph-name="five" horiz-adv-x="497" d="M234-12q-76 0-126 27T25 75l40 54q29-28 67-50t94-23q59 0 99 39t41 107q0 66-37 103t-99 37q-33 0-56-10t-53-29l-44 28 21 307h319v-71H170l-17-189q23 12 46 19t52 7q55 0 99-21t72-66 27-113q0-69-30-117t-80-74-105-25Z"/><glyph unicode="6" glyph-name="six" horiz-adv-x="497" d="M261 328q-31 0-67-20t-66-64q8-93 43-142t97-49q47 0 79 38t32 102q0 62-29 98t-89 37Zm7-340q-62 0-112 34T77 124 48 295q0 128 34 206t90 113 119 36q52 0 89-19t65-49l-46-51q-19 23-47 36t-58 14q-45 0-82-25t-60-85-26-161q30 37 70 58t79 22q83 0 132-49t50-148q0-61-26-107t-68-72-95-26Z"/><glyph unicode="7" glyph-name="seven" horiz-adv-x="497" d="M177 0q6 120 25 215t58 180 102 172H44v71h411v-51q-57-72-93-138t-56-134-30-145T262 0h-85Z"/><glyph unicode="8" glyph-name="eight" horiz-adv-x="497" d="M250-12q-60 0-107 22T69 73t-28 90q0 42 17 74t45 57 58 41v4q-35 25-62 61t-27 86q0 49 24 86t65 57 92 21q83 0 131-48t49-122q0-33-14-62t-34-53-40-39v-4q29-16 54-38t41-52 16-74q0-47-25-86t-72-61-109-23Zm45 360q32 29 49 61t18 67q0 47-29 80t-82 33q-44 0-73-28t-30-75q0-38 20-63t55-42 72-33ZM252 49q56 0 90 31t35 81q0 41-24 67t-63 45-86 37q-38-25-63-60t-26-79q0-53 39-87t98-35Z"/><glyph unicode="9" glyph-name="nine" horiz-adv-x="497" d="M117 445q0-62 29-98t89-37q32 0 67 20t67 65q-8 93-44 141t-97 49q-46 0-78-38t-33-102Zm88-457q-51 0-89 19T51 55l46 52q20-23 47-37t58-14q45 0 83 26t61 86 25 162q-30-38-70-60t-80-22q-82 0-131 49T40 445q0 61 26 107t68 72 94 26q63 0 113-34t78-102 29-171q0-128-34-206T324 24 205-12Z"/><glyph unicode=":" glyph-name="colon" horiz-adv-x="249" d="M125 349q-25 0-42 17t-18 45q0 29 17 46t43 18q24 0 41-17t18-47q0-27-17-44t-42-18Zm0-361q-25 0-42 17T65 50q0 29 17 46t43 18q24 0 41-17t18-47q0-27-17-44t-42-18Z"/><glyph unicode=";" glyph-name="semicolon" horiz-adv-x="249" d="M125 349q-25 0-42 17t-18 45q0 29 17 46t43 18q24 0 41-17t18-47q0-27-17-44t-42-18ZM67-170l-20 48q43 19 67 50t23 72q-2-1-5-1t-5 0q-24 0-41 14T68 56q0 27 18 42t43 16q32 0 50-26t19-71q0-64-35-112t-96-75Z"/><glyph unicode="&lt;" glyph-name="less" horiz-adv-x="497" d="M463 131 34 299v66l429 168v-71l-211-78-134-50v-4l134-50 211-78v-71Z"/><glyph unicode="=" glyph-name="equal" horiz-adv-x="497" d="M34 406v62h429v-62H34Zm0 42v62h429v-62H34Z"/><glyph unicode="&gt;" glyph-name="greater" horiz-adv-x="497" d="M34 131v71l211 78 134 50v4l-134 50-211 78v71l429-168v-66L34 131Z"/><glyph unicode="?" glyph-name="question" horiz-adv-x="425" d="M160 198q-7 47 5 83t33 66 44 57 39 54 16 59q0 40-24 68t-73 29q-33 0-62-15t-53-43l-47 43q32 36 74 59t98 24q76 0 121-43t46-117q0-39-16-70t-39-60-46-57-35-62-9-75h-72Zm38-210q-25 0-42 17t-17 45q0 29 17 46t42 18q25 0 42-17t18-47q0-27-17-44t-43-18Z"/><glyph unicode="@" glyph-name="at" horiz-adv-x="847" d="M403-155q-98 0-178 41T98 7 51 203q0 101 33 182t91 140 134 89 159 32q101 0 174-41t114-116 40-174q0-87-31-146t-77-90-92-30q-40 0-69 19t-34 57h-2q-25-29-57-48t-65-20q-51 0-85 36t-35 105q0 40 13 81t39 75 60 55 80 21q26 0 46-11t34-37h2l11 40h55l-39-200q-30-117 54-117 32 0 62 24t51 71 21 112q0 81-31 144t-93 99-153 36q-67 0-129-27t-113-77-79-122-29-159q0-97 39-165T256-64t153-36q46 0 87 13t75 32l22-49q-43-26-90-38t-100-13Zm-18 268q21 0 44 14t48 45l29 159q-14 23-29 32t-35 10q-39 0-67-27t-44-66-16-77q0-48 20-69t50-21Z"/><glyph unicode="A" glyph-name="A" horiz-adv-x="544" d="m203 367-31-100h197l-31 100q-18 55-34 109t-32 112h-4q-15-57-31-111t-34-110ZM3 0l222 656h94L541 0h-89l-62 200H151L88 0H3Z"/><glyph unicode="B" glyph-name="B" horiz-adv-x="588" d="M90 0v656h195q67 0 117-16t79-51 29-93q0-49-24-88t-72-55v-4q59-11 96-50t38-107q0-64-31-107t-88-64T299 0H90Zm83 377h97q84 0 121 29t37 79q0 57-38 81t-116 24H173V377Zm0-311h114q85 0 132 31t47 98q0 61-46 89t-133 29H173V66Z"/><glyph unicode="C" glyph-name="C" horiz-adv-x="571" d="M338-12q-82 0-146 40T90 145 52 328q0 106 38 182t104 117 149 41q60 0 106-24t74-57l-45-54q-26 28-59 45t-75 17q-62 0-108-32t-72-92-26-141q0-82 25-142t70-94 108-33q47 0 84 20t68 54l46-52q-39-45-88-70T338-12Z"/><glyph unicode="D" glyph-name="D" horiz-adv-x="615" d="M90 0v656h164q152 0 231-84t79-241q0-157-78-244T258 0H90Zm83 68h75q115 0 172 69t58 194q0 124-57 190t-173 67h-75V68Z"/><glyph unicode="E" glyph-name="E" horiz-adv-x="527" d="M90 0v656h378v-70H173V380h249v-71H173V71h305V0H90Z"/><glyph unicode="F" glyph-name="F" horiz-adv-x="494" d="M90 0v656h378v-70H173V364h250v-70H173V0H90Z"/><glyph unicode="G" glyph-name="G" horiz-adv-x="617" d="M348-12q-86 0-153 40T90 145 52 328q0 106 39 182t107 117 155 41q68 0 114-25t75-56l-46-54q-25 26-58 44t-83 18q-66 0-115-32t-75-92-27-141q0-124 56-196t162-73q35 0 67 10t51 29v171H335v69h215V64q-31-33-83-54T348-12Z"/><glyph unicode="H" glyph-name="H" horiz-adv-x="652" d="M90 0v656h83V381h305v275h84V0h-84v309H173V0H90Z"/><glyph unicode="I" glyph-name="I" horiz-adv-x="263" d="M90 0v656h83V0H90Z"/><glyph unicode="J" glyph-name="J" horiz-adv-x="480" d="M212-12Q89-12 31 93l60 42q22-39 50-56t63-18q53 0 79 32t26 108v455h84V193q0-56-18-103t-59-74-104-28Z"/><glyph unicode="K" glyph-name="K" horiz-adv-x="579" d="M90 0v656h83V327h3l273 329h94L338 406 575 0h-93L286 341 173 208V0H90Z"/><glyph unicode="L" glyph-name="L" horiz-adv-x="486" d="M90 0v656h83V71h287V0H90Z"/><glyph unicode="M" glyph-name="M" horiz-adv-x="727" d="M90 0v656h100l126-350q12-34 23-68t24-69h4q12 34 22 68t23 69l124 350h101V0h-78v361q0 44 4 97t7 97h-4l-52-149L390 66h-55L211 406l-52 149h-4q3-43 6-96t4-98V0H90Z"/><glyph unicode="N" glyph-name="N" horiz-adv-x="647" d="M90 0v656h86l237-412 71-136h4q-3 50-6 103t-4 106v339h79V0h-86L233 413l-71 135h-4q4-49 7-101t4-104V0H90Z"/><glyph unicode="O" glyph-name="O" horiz-adv-x="664" d="M332-12q-82 0-145 42T88 149 52 331q0 105 35 180t99 116 146 41q83 0 146-40t99-116 36-181q0-105-36-182T478 30 332-12Zm0 73q59 0 102 33t68 94 24 143q0 122-53 193t-141 71q-88 0-141-71t-53-193q0-82 24-142t68-94 102-34Z"/><glyph unicode="P" glyph-name="P" horiz-adv-x="566" d="M90 0v656h187q74 0 129-18t86-60 31-115q0-103-67-153t-175-50H173V0H90Zm83 328h98q86 0 127 32t42 103q0 71-43 98t-130 28h-94V328Z"/><glyph unicode="Q" glyph-name="Q" horiz-adv-x="664" d="M332 57q59 0 102 33t68 95 24 146q0 122-53 193t-141 71q-88 0-141-71t-53-193q0-84 24-145t68-95 102-34Zm201-222q-91 0-152 44T291-9Q220 1 166 45T82 162 52 331q0 105 35 180t99 116 146 41q83 0 146-40t99-116 36-181q0-94-29-166T503 49 381-8q23-43 65-65t96-22q22 0 39 2t30 7l16-64q-15-6-40-10t-54-5Z"/><glyph unicode="R" glyph-name="R" horiz-adv-x="569" d="M90 0v656h205q67 0 119-17t81-58 30-109q0-76-40-122t-108-64L544 0h-94L292 277H173V0H90Zm83 345h110q77 0 118 31t41 96q0 65-41 91t-118 26H173V345Z"/><glyph unicode="S" glyph-name="S" horiz-adv-x="534" d="M272-12q-69 0-128 26T42 85l50 58q35-37 82-59t99-23q65 0 101 29t36 78q0 34-14 54t-39 34-56 28l-94 41q-31 13-61 34t-51 54-21 81q0 50 26 89t74 62 106 23q59 0 109-22t85-59l-45-54q-30 29-66 45t-83 17q-55 0-88-26t-34-70q0-31 16-51t42-34 51-24l93-40q38-16 68-38t49-55 18-82q0-52-27-94t-77-68-119-25Z"/><glyph unicode="T" glyph-name="T" horiz-adv-x="536" d="M226 0v586H28v70h480v-70H310V0h-84Z"/><glyph unicode="U" glyph-name="U" horiz-adv-x="645" d="M323-12q-67 0-120 27t-85 89-31 167v385h83V269q0-79 20-124t55-65 78-19q44 0 79 19t55 64 21 125v387h80V271q0-105-31-167t-84-89-120-27Z"/><glyph unicode="V" glyph-name="V" horiz-adv-x="515" d="M210 0 0 656h89l105-354q18-58 31-108t33-109h4q18 58 32 108t31 109l105 354h85L307 0h-97Z"/><glyph unicode="W" glyph-name="W" horiz-adv-x="786" d="M162 0 23 656h86l69-357q9-53 19-106t19-106h4q11 53 23 106t23 106l91 357h76l91-357q12-52 24-105t24-107h4l18 106q9 53 19 106l69 357h80L626 0H526l-99 395q-9 38-16 74t-16 75h-4q-7-38-16-74t-17-75L261 0h-99Z"/><glyph unicode="X" glyph-name="X" horiz-adv-x="513" d="m15 0 191 339L28 656h92l89-168q13-22 24-44t27-51h4q14 29 24 51t23 44l87 168h88L307 335 498 0h-92l-96 177q-13 24-26 49t-30 56h-4q-14-30-27-55t-25-50L103 0H15Z"/><glyph unicode="Y" glyph-name="Y" horiz-adv-x="476" d="M196 0v254L-1 656h89l85-185q16-36 31-71t32-72h4q17 37 34 72t32 71l84 185h87L280 254V0h-84Z"/><glyph unicode="Z" glyph-name="Z" horiz-adv-x="539" d="M45 0v50l345 536H76v70h418v-49L148 71h349V0H45Z"/><glyph unicode="[" glyph-name="bracketleft" horiz-adv-x="303" d="M94-152v860h179v-47H156v-766h117v-47H94Z"/><glyph unicode="\" glyph-name="backslash" horiz-adv-x="350" d="M281-160 14 710h59l267-870h-59Z"/><glyph unicode="]" glyph-name="bracketright" horiz-adv-x="303" d="M31-152v47h116v766H31v47h178v-860H31Z"/><glyph unicode="^" glyph-name="asciicircum" horiz-adv-x="497" d="m60 284 152 386h73l152-386h-72l-65 176-49 133h-4l-50-133-65-176H60Z"/><glyph unicode="_" glyph-name="underscore" horiz-adv-x="500" d="M12-126v55h476v-55H12Z"/><glyph unicode="`" glyph-name="grave" horiz-adv-x="542" d="M285 573 128 726l58 55 141-167-42-41Z"/><glyph unicode="a" glyph-name="a" horiz-adv-x="504" d="M194-12q-61 0-101 36T52 126q0 80 71 122t227 60q0 31-8 59t-30 45-62 18q-42 0-79-16t-66-36l-32 57q34 22 83 42t108 21q89 0 129-54t40-146V0h-68l-7 58h-3q-34-28-74-49t-87-21Zm24 66q35 0 66 17t66 48v135q-121-15-169-45t-49-77q0-41 25-59t61-19Z"/><glyph unicode="b" glyph-name="b" horiz-adv-x="553" d="M297-12q-34 0-70 16t-69 46h-3l-7-50H82v712h82V518l-2-88q33 29 72 48t80 20q95 0 144-67t49-180q0-83-29-142t-77-90-104-31Zm-14 69q60 0 99 51t40 142q0 80-29 129t-99 50q-31 0-63-17t-67-49V108q32-28 63-39t56-12Z"/><glyph unicode="c" glyph-name="c" horiz-adv-x="456" d="M274-12q-64 0-116 30t-82 87-30 137q0 82 32 139t86 87 116 30q48 0 82-17t60-40l-42-54q-21 19-44 31t-53 12q-44 0-78-23t-54-66-20-99q0-83 41-134t109-52q34 0 63 14t51 35l36-55q-33-29-73-45t-84-17Z"/><glyph unicode="d" glyph-name="d" horiz-adv-x="555" d="M248-12q-91 0-146 66T47 242q0 79 29 136t78 89 104 31q42 0 73-15t63-41l-4 83v187h83V0h-68l-7 57h-3q-28-28-66-48t-81-21Zm18 69q64 0 124 67v254q-31 28-59 39t-59 12q-39 0-70-23t-51-65-19-98q0-87 35-136t99-50Z"/><glyph unicode="e" glyph-name="e" horiz-adv-x="496" d="M279-12q-65 0-118 30t-84 88-31 136q0 80 31 137t82 88 105 31q93 0 143-62t51-166v-25q0-12-3-22H127q5-77 48-123t114-46q35 0 64 10t57 28l29-54q-31-20-70-35t-90-15ZM126 282h260q0 74-31 112t-89 39q-51 0-91-39t-49-112Z"/><glyph unicode="f" glyph-name="f" horiz-adv-x="292" d="M96 0v419H30v62l66 5v77q0 74 34 117t108 44q23 0 44-4t37-12l-18-63q-27 12-55 12-68 0-68-94v-77h103v-67H178V0H96Z"/><glyph unicode="g" glyph-name="g" horiz-adv-x="504" d="M246-224q-89 0-145 34T45-93q0 31 19 59t52 51v4Q98 32 86 52t-13 48q0 31 17 54t36 36v4q-24 20-43 54t-20 77q0 53 25 92t67 60 91 21q20 0 38-3t31-9h169v-63H384q17-16 28-42t12-58q0-52-24-90t-64-58-90-21q-39 0-73 17-13-11-22-24t-9-34q0-23 18-38t68-15h94q85 0 127-27t43-89q0-45-30-83t-85-61-131-24Zm0 433q42 0 72 31t31 85q0 53-30 83t-73 30q-43 0-73-30t-30-83q0-53 30-84t73-32Zm12-376q70 0 112 30t42 69q0 34-25 47T314-8h-84q-14 0-30 2t-33 6q-26-19-38-40t-12-42q0-39 37-62t104-23Z"/><glyph unicode="h" glyph-name="h" horiz-adv-x="544" d="M82 0v712h82V518l-3-100q35 33 73 56t89 24q77 0 112-48t36-142V0h-82v297q0 68-22 99t-70 31q-37 0-66-19t-67-56V0H82Z"/><glyph unicode="i" glyph-name="i" horiz-adv-x="246" d="M82 0v486h82V0H82Zm42 586q-24 0-39 14t-16 40q0 24 15 39t40 15q24 0 39-15t16-39q0-25-15-39t-40-15Z"/><glyph unicode="j" glyph-name="j" horiz-adv-x="247" d="M32-217q-22 0-40 4t-32 9l17 62q9-3 21-5t25-3q36 0 48 25t12 70v541h82V-55q0-74-30-118T32-217Zm91 803q-24 0-39 14t-16 40q0 24 15 39t40 15q24 0 39-15t16-39q0-25-15-39t-40-15Z"/><glyph unicode="k" glyph-name="k" horiz-adv-x="495" d="M82 0v712h81V230h3l207 256h91L301 291 486 0h-90L254 234l-91-106V0H82Z"/><glyph unicode="l" glyph-name="l" horiz-adv-x="255" d="M169-12q-46 0-66 28T82 98v614h82V92q0-19 7-27t16-9h7q3 0 11 2l11-62q-8-4-19-6t-28-2Z"/><glyph unicode="m" glyph-name="m" horiz-adv-x="829" d="M82 0v486h68l7-70h3q32 35 70 58t81 24q56 0 87-24t47-69q38 41 77 67t83 26q75 0 111-48t37-142V0h-82v297q0 68-22 99t-68 31q-54 0-122-75V0h-82v297q0 68-22 99t-69 31q-54 0-122-75V0H82Z"/><glyph unicode="n" glyph-name="n" horiz-adv-x="547" d="M82 0v486h68l7-70h3q35 35 74 58t89 24q77 0 112-48t36-142V0h-82v297q0 68-22 99t-70 31q-37 0-66-19t-67-56V0H82Z"/><glyph unicode="o" glyph-name="o" horiz-adv-x="542" d="M271-12q-59 0-110 30t-83 87-32 137q0 82 31 139t83 87 111 30q60 0 111-30t82-87 32-139q0-80-31-137t-83-87-111-30Zm0 68q63 0 101 51t39 135q0 84-38 136t-102 52q-62 0-101-52t-39-136q0-83 39-134t101-52Z"/><glyph unicode="p" glyph-name="p" horiz-adv-x="555" d="M82-205v691h68l7-56h3q33 28 72 48t83 20q94 0 143-67t49-181q0-82-29-141t-77-90-104-31q-34 0-67 15t-68 41l2-85v-164H82ZM283 57q60 0 99 51t40 142q0 80-29 129t-99 50q-31 0-62-17t-68-49V108q33-28 64-39t55-12Z"/><glyph unicode="q" glyph-name="q" horiz-adv-x="555" d="M390-205v173l4 88q-29-28-66-48t-80-20q-91 0-146 66T47 242q0 79 29 136t78 89 104 31q42 0 74-14t65-44h2l8 46h66v-691h-83ZM266 57q64 0 124 67v254q-31 28-59 39t-59 12q-39 0-70-23t-51-65-19-98q0-87 35-136t99-50Z"/><glyph unicode="r" glyph-name="r" horiz-adv-x="347" d="M82 0v486h68l7-88h3q25 46 61 73t77 27q29 0 52-10l-16-72q-12 4-22 6t-25 2q-31 0-64-25t-59-87V0H82Z"/><glyph unicode="s" glyph-name="s" horiz-adv-x="419" d="M209-12q-52 0-99 19T28 55l41 55q32-25 66-41t77-17q48 0 72 22t24 54q0 25-16 42t-42 28-53 22q-34 13-67 29t-54 43-21 68q0 59 44 98t124 40q45 0 84-16t67-39l-40-52q-25 19-52 31t-59 12q-46 0-67-21t-22-49q0-23 15-37t39-25 51-22q35-13 69-29t56-44 23-74q0-39-20-72T307 8t-98-20Z"/><glyph unicode="t" glyph-name="t" horiz-adv-x="338" d="M235-12q-78 0-108 45T96 150v269H24v62l76 5 10 136h69V486h131v-67H179V149q0-45 16-69t59-25q13 0 28 4t27 9l16-62q-20-7-43-12t-47-6Z"/><glyph unicode="u" glyph-name="u" horiz-adv-x="544" d="M224-12q-77 0-113 48T75 178v308h83V189q0-68 21-99t70-31q38 0 67 19t64 63v345h82V0h-68l-7 76h-3q-34-40-72-64t-88-24Z"/><glyph unicode="v" glyph-name="v" horiz-adv-x="467" d="M187 0 12 486h85l92-276 22-72q11-36 23-71h4q11 35 22 71t22 72l92 276h81L283 0h-96Z"/><glyph unicode="w" glyph-name="w" horiz-adv-x="718" d="M159 0 24 486h84l72-281q8-34 15-67t14-68h4q8 34 16 67t17 68l75 281h80l76-281q9-34 17-67t17-68h4q8 34 15 67t15 68l71 281h78L564 0H464l-70 261q-9 35-16 69t-17 71h-4q-8-37-16-71t-18-70L255 0h-96Z"/><glyph unicode="x" glyph-name="x" horiz-adv-x="446" d="m14 0 159 254L26 486h89l65-107q11-19 23-40t25-41h4q11 20 22 41t22 40l59 107h86L274 245 432 0h-89l-71 113-26 44q-13 22-27 43h-4q-13-21-25-42t-24-45L100 0H14Z"/><glyph unicode="y" glyph-name="y" horiz-adv-x="467" d="M90-209q-16 0-30 3t-27 7l16 65q8-2 18-4t19-3q41 0 68 29t42 75l11 36L12 486h85l99-269q11-31 23-67t24-70h4q11 33 21 69t20 68l87 269h80L272-40q-17-48-40-86t-58-60-84-23Z"/><glyph unicode="z" glyph-name="z" horiz-adv-x="425" d="M31 0v44l256 375H59v67h332v-44L135 67h264V0H31Z"/><glyph unicode="{" glyph-name="braceleft" horiz-adv-x="303" d="M228-152q-59 0-88 28T111-19q0 55 4 99t5 94q0 29-17 53t-69 25v52q51 1 68 25t18 52q0 51-4 95t-5 99q0 77 29 105t88 28h45v-47h-27q-40 0-54-21t-14-70q0-46 3-88t3-93q0-49-14-74t-46-35v-4q32-9 46-35t14-74q0-51-3-93t-3-88q0-49 14-70t54-21h27v-47h-45Z"/><glyph unicode="|" glyph-name="bar" horiz-adv-x="241" d="M92-250V750h58V-250H92Z"/><glyph unicode="}" glyph-name="braceright" horiz-adv-x="303" d="M31-152v47h26q41 0 54 21t14 70q0 46-2 88t-3 93q0 48 13 74t46 35v4q-32 9-45 34t-14 75q0 51 2 93t3 88q0 49-13 70t-55 21H31v47h44q60 0 88-28t29-105q0-55-4-99t-5-95q0-28 18-52t68-25v-52q-50-1-68-25t-18-53q0-50 4-94t5-99q0-77-28-105t-89-28H31Z"/><glyph unicode="~" glyph-name="asciitilde" horiz-adv-x="497" d="M336 257q-30 0-53 12t-44 30-39 29-41 13q-22 0-41-14t-36-47l-46 33q27 48 60 69t65 21q30 0 53-12t44-30 39-29 41-13q22 0 41 14t36 47l46-34q-27-47-60-68t-65-21Z"/><glyph glyph-name="space" horiz-adv-x="200"/><glyph unicode="¡" glyph-name="exclamdown" horiz-adv-x="289" d="m103-184 2 94 11 378h57l11-378 2-94h-83Zm42 556q-25 0-42 18t-18 46q0 27 17 44t43 18q24 0 41-17t18-45q0-28-17-46t-42-18Z"/><glyph unicode="¢" glyph-name="cent" horiz-adv-x="497" d="M262-33V71q-89 11-145 72T61 310q0 69 26 119t73 80 102 38v106h52V550q44-2 76-19t55-39l-40-52q-20 18-42 29t-49 13V138q32 2 58 15t46 32l36-52q-29-26-65-43t-75-20V-33h-52ZM143 310q0-67 31-111t88-57v335q-55-13-87-57t-32-110Z"/><glyph unicode="£" glyph-name="sterling" horiz-adv-x="497" d="M54 0v50q51 28 78 76t28 104q0 14-2 28t-5 27H53v52l67 4h18q-10 32-18 63t-9 62q0 85 51 134t135 50q53 0 91-21t64-54l-48-47q-19 23-43 38t-58 15q-54 0-82-32t-29-85q0-31 7-61t17-62h159v-56H229q2-13 3-27t2-29q0-52-16-87t-46-67v-4h281V0H54Z"/><glyph unicode="¤" glyph-name="currency" horiz-adv-x="497" d="m70 103-44 45 64 65q-36 49-36 116 0 68 36 117l-64 66 44 45 68-70q48 37 111 37 62 0 110-37l68 70 44-45-65-66q17-23 27-52t10-65q0-34-10-63t-27-53l65-65-44-45-68 69q-23-19-52-28t-58-10q-64 0-111 38l-68-69Zm179 92q48 0 83 37t35 97q0 60-35 97t-83 37q-49 0-84-37t-35-97q0-60 35-97t84-37Z"/><glyph unicode="¥" glyph-name="yen" horiz-adv-x="497" d="M207 0v158H45v48h162v65H45v47h141L23 638h86l78-171q15-33 29-66t31-69h4q17 35 31 68t30 67l78 171h84L310 318h142v-47H289v-65h163v-48H289V0h-82Z"/><glyph unicode="¦" glyph-name="brokenbar" horiz-adv-x="241" d="M92 291v459h58V291H92Zm0-541v464h58v-464H92Z"/><glyph unicode="§" glyph-name="section" horiz-adv-x="497" d="M236-64q-53 0-97 19T63 7l50 45q25-24 54-38t69-14q40 0 62 20t23 49q0 29-20 47t-51 33-67 30-66 35-52 52-20 77q0 44 24 76t62 53q-15 16-23 36t-9 46q0 52 38 91t114 39q47 0 86-17t68-40l-40-53q-24 20-51 33t-60 13q-42 0-60-18t-19-45q0-27 20-45t51-33 67-30 67-36 52-52 20-77q0-47-23-77t-62-52q14-16 22-36t8-46q0-39-20-70t-57-49-84-18ZM117 348q0-33 19-54t51-38 66-30 67-33q29 14 44 33t16 52q0 34-19 56t-51 38-66 30-66 33q-28-16-44-36t-17-51Z"/><glyph unicode="¨" glyph-name="dieresis" horiz-adv-x="542" d="M175 587q-22 0-36 14t-14 36q0 21 14 35t36 15q21 0 35-14t14-36q0-21-14-35t-35-15Zm192 0q-21 0-35 14t-14 36q0 21 14 35t35 15q22 0 36-14t14-36q0-21-14-35t-36-15Z"/><glyph unicode="©" glyph-name="copyright" horiz-adv-x="744" d="M372-11q-65 0-123 23T145 79 75 185 49 323q0 76 25 137t71 104 103 66 124 23q65 0 123-23t104-66 70-104 26-137q0-76-25-138T599 80 496 13 372-11Zm0 42q76 0 138 36t100 103 38 153q0 87-37 152T511 576t-139 36q-75 0-138-36T134 475 96 323q0-87 37-153T234 68t138-37Zm8 94q-50 0-91 23t-66 68-25 107q0 58 26 100t68 66 91 23q42 0 71-16t54-41l-35-39q-20 20-40 30t-47 11q-55 0-88-37t-34-97q0-66 32-104t87-39q32 0 56 12t46 32l30-42q-28-24-59-40t-76-17Z"/><glyph unicode="ª" glyph-name="ordfeminine" horiz-adv-x="345" d="M136 387q-44 0-71 25t-28 69q0 53 48 81t151 38q-1 32-14 52t-48 21q-26 0-53-10t-48-24l-23 43q25 15 59 28t74 14q60 0 87-35t28-98V395h-50l-7 37h-4q-20-18-45-31t-56-14Zm18 49q39 0 82 40v85q-77-8-107-27t-31-48q0-25 15-37t41-13Z"/><glyph unicode="«" glyph-name="guillemotleft" horiz-adv-x="429" d="M181 66 45 221v62l136 155 36-30L99 252 217 94l-36-28Zm158 0L203 221v62l136 155 36-30-118-156L375 94l-36-28Z"/><glyph unicode="¬" glyph-name="logicalnot" horiz-adv-x="497" d="M397 104v195H34v62h429V104h-66Z"/><glyph unicode="­" glyph-name="hyphen" horiz-adv-x="311" d="M41 219v63h230v-63H41Z"/><glyph unicode="®" glyph-name="registered" horiz-adv-x="423" d="M211 319q-51 0-94 25t-68 69-26 103q0 59 25 103t69 69 94 25q52 0 95-25t68-69 26-103q0-58-25-102t-69-70-95-25Zm0 37q42 0 75 20t54 56 20 84q0 47-20 83t-53 57-76 21q-42 0-75-20t-53-57-20-84q0-47 19-83t53-57 76-20Zm-72 61v203h76q32 0 55-14t23-51q0-18-10-33t-27-22l46-83h-46l-35 70h-41v-70h-41Zm41 102h26q43 0 43 34 0 15-9 24t-32 9h-28v-67Z"/><glyph unicode="¯" glyph-name="overscore" horiz-adv-x="542" d="M138 601v57h266v-57H138Z"/><glyph unicode="°" glyph-name="degree" horiz-adv-x="331" d="M166 429q-33 0-61 15t-46 45-18 67q0 59 37 94t88 35q50 0 87-35t38-94q0-38-17-67t-46-44-62-16Zm0 46q33 0 54 23t21 58q0 37-21 60t-54 23q-33 0-54-23t-21-60q0-35 21-58t54-23Z"/><glyph unicode="±" glyph-name="plusminus" horiz-adv-x="497" d="M216 127v177H34v62h182v190h65V366h182v-62H281V127h-65ZM34 0v62h429V0H34Z"/><glyph unicode="²" glyph-name="two.sups" horiz-adv-x="367" d="M52 395v37q91 82 138 133t47 96q0 38-20 60t-55 22q-25 0-46-16t-38-41l-38 35q23 34 56 55t74 21q59 0 94-32t36-94q0-37-19-71t-51-71-75-79h165v-55H52Z"/><glyph unicode="³" glyph-name="three.sups" horiz-adv-x="367" d="M180 383q-47 0-84 21t-61 55l43 33q18-27 43-42t56-16q32 0 55 18t23 52q0 34-32 51t-89 18v41q50 0 78 20t28 50q0 28-19 45t-52 17q-22 0-42-13t-37-34l-39 34q26 29 57 46t71 18q50 0 87-27t37-78q0-34-19-58t-49-38q33-8 58-32t26-64q0-54-41-85t-98-32Z"/><glyph unicode="´" glyph-name="acute" horiz-adv-x="542" d="m257 573-42 41 141 167 58-55-157-153Z"/><glyph unicode="µ" glyph-name="mu" horiz-adv-x="562" d="M82-179v665h82V189q0-64 21-97t68-33q33 0 64 17t65 78v332h83q-1-98-3-200t-3-191q0-20 10-29t26-10q13 0 29 6l11-62q-10-5-24-8t-34-4q-41 0-62 22t-26 72h-2q-26-46-60-69t-75-23q-29 0-53 9t-41 38q1-48 1-82t2-64 4-70H82Z"/><glyph unicode="¶" glyph-name="paragraph" horiz-adv-x="560" d="M380-80v736h84V-80h-84Zm-87 306q-72 0-129 23t-90 71-33 123q0 79 31 125t86 67 124 21h44V226h-33Z"/><glyph unicode="·" glyph-name="middot" horiz-adv-x="249" d="M125 259q-25 0-42 17t-18 45q0 29 17 46t43 18q24 0 41-17t18-47q0-27-17-44t-42-18Z"/><glyph unicode="¸" glyph-name="cedilla" horiz-adv-x="542" d="m190-226-8 40q63 5 86 16t23 34q0 20-17 31t-60 17l44 91h53l-29-67q35-8 54-24t19-47q0-43-42-65t-123-26Z"/><glyph unicode="¹" glyph-name="one.sups" horiz-adv-x="367" d="M172 395v308H87v42q33 6 55 15t42 25h52V395h-64Z"/><glyph unicode="º" glyph-name="ordmasculine" horiz-adv-x="365" d="M182 387q-41 0-76 20t-55 57-21 91q0 54 20 92t56 57 76 20q41 0 75-19t56-58 21-92q0-53-21-90t-55-58-76-20Zm0 51q41 0 64 32t24 85q0 53-23 85t-65 33q-41 0-65-32t-24-86q0-52 24-84t65-33Z"/><glyph unicode="»" glyph-name="guillemotright" horiz-adv-x="429" d="M89 66 54 94l118 158L54 408l35 30 137-155v-62L89 66Zm158 0-35 28 118 158-118 156 35 30 137-155v-62L247 66Z"/><glyph unicode="¼" glyph-name="onequarter" horiz-adv-x="781" d="M148 266v308H63v42q33 6 55 15t42 25h52V266h-64Zm32-278 362 680h56L236-12h-56Zm342 162h111v70l4 109h-4l-50-81-61-98ZM633 0v104H455v33l164 253h72V150h58v-46h-58V0h-58Z"/><glyph unicode="½" glyph-name="onehalf" horiz-adv-x="808" d="M148 266v308H63v42q33 6 55 15t42 25h52V266h-64Zm12-278 362 680h56L216-12h-56ZM493 0v37q91 82 138 133t47 96q0 38-20 60t-55 22q-25 0-46-16t-38-41l-38 35q23 34 56 55t74 21q59 0 94-32t36-94q0-37-19-71t-51-71-75-79h165V0H493Z"/><glyph unicode="¾" glyph-name="threequarters" horiz-adv-x="796" d="M179 254q-47 0-84 21t-61 55l43 33q18-27 43-42t56-16q32 0 55 18t23 52q0 34-32 51t-89 18v41q50 0 78 20t28 50q0 28-19 45t-52 17q-22 0-42-13t-37-34l-39 34q26 29 57 46t71 18q50 0 87-27t37-78q0-34-19-58t-49-38q33-8 58-32t26-64q0-54-41-85t-98-32Zm39-266 362 680h56L274-12h-56Zm319 162h111v70l4 109h-4l-50-81-61-98ZM648 0v104H470v33l164 253h72V150h58v-46h-58V0h-58Z"/><glyph unicode="¿" glyph-name="questiondown" horiz-adv-x="425" d="M215-196q-76 0-121 43T48-36q0 39 16 70t39 60 46 57 35 62 8 75h73q7-47-5-83t-33-66-44-57-39-54-16-59q0-40 24-68t73-28q33 0 62 15t52 42l48-43q-32-35-74-59t-98-24Zm12 568q-25 0-42 18t-18 46q0 27 17 44t43 18q24 0 41-17t18-45q0-28-17-46t-42-18Z"/><glyph unicode="À" glyph-name="Agrave" horiz-adv-x="544" d="m203 367-31-100h197l-31 100q-18 55-34 109t-32 112h-4q-15-57-31-111t-34-110ZM3 0l222 656h94L541 0h-89l-62 200H151L88 0H3Zm285 697L136 812l47 55 142-128-37-42Z"/><glyph unicode="Á" glyph-name="Aacute" horiz-adv-x="544" d="m203 367-31-100h197l-31 100q-18 55-34 109t-32 112h-4q-15-57-31-111t-34-110ZM3 0l222 656h94L541 0h-89l-62 200H151L88 0H3Zm251 697-37 42 142 128 47-55-152-115Z"/><glyph unicode="Â" glyph-name="Acircumflex" horiz-adv-x="544" d="m203 367-31-100h197l-31 100q-18 55-34 109t-32 112h-4q-15-57-31-111t-34-110ZM3 0l222 656h94L541 0h-89l-62 200H151L88 0H3Zm156 699-36 26 105 113h86l105-113-36-26-110 93h-4l-110-93Z"/><glyph unicode="Ã" glyph-name="Atilde" horiz-adv-x="544" d="m203 367-31-100h197l-31 100q-18 55-34 109t-32 112h-4q-15-57-31-111t-34-110ZM3 0l222 656h94L541 0h-89l-62 200H151L88 0H3Zm343 709q-28 0-48 10t-36 25-31 25-33 11q-19 0-32-17t-16-49l-56 4q3 57 30 90t72 33q28 0 48-10t36-25 31-25 33-11q40 0 48 66l56-4q-3-58-30-90t-72-33Z"/><glyph unicode="Ä" glyph-name="Adieresis" horiz-adv-x="544" d="m203 367-31-100h197l-31 100q-18 55-34 109t-32 112h-4q-15-57-31-111t-34-110ZM3 0l222 656h94L541 0h-89l-62 200H151L88 0H3Zm165 715q-21 0-35 14t-14 35q0 22 14 35t35 14q22 0 35-13t14-36q0-21-13-35t-36-14Zm206 0q-22 0-35 14t-14 35q0 22 13 35t36 14q21 0 35-13t14-36q0-21-14-35t-35-14Z"/><glyph unicode="Å" glyph-name="Aring" horiz-adv-x="544" d="m203 367-31-100h197l-31 100q-18 55-34 109t-32 112h-4q-15-57-31-111t-34-110ZM3 0l222 656h94L541 0h-89l-62 200H151L88 0H3Zm268 699q-42 0-69 25t-28 65q0 41 27 66t70 25q41 0 69-25t28-66q0-40-28-65t-69-25Zm0 36q20 0 35 14t16 40q0 26-15 40t-36 14q-22 0-37-14t-15-40q0-26 15-40t37-14Z"/><glyph unicode="Æ" glyph-name="AE" horiz-adv-x="822" d="m290 376-61-118h172v332h-4q-53-107-107-214ZM8 0l344 656h411v-70H485V380h232v-71H485V71h288V0H401v191H195L96 0H8Z"/><glyph unicode="Ç" glyph-name="Ccedilla" horiz-adv-x="571" d="M338-12q-82 0-146 40T90 145 52 328q0 106 38 182t104 117 149 41q60 0 106-24t74-57l-45-54q-26 28-59 45t-75 17q-62 0-108-32t-72-92-26-141q0-82 25-142t70-94 108-33q47 0 84 20t68 54l46-52q-39-45-88-70T338-12Zm-82-214-8 40q63 5 86 16t23 34q0 20-17 31t-60 17l44 91h53l-29-67q35-8 54-24t19-47q0-43-42-65t-123-26Z"/><glyph unicode="È" glyph-name="Egrave" horiz-adv-x="527" d="M90 0v656h378v-70H173V380h249v-71H173V71h305V0H90Zm217 697L155 812l47 55 142-128-37-42Z"/><glyph unicode="É" glyph-name="Eacute" horiz-adv-x="527" d="M90 0v656h378v-70H173V380h249v-71H173V71h305V0H90Zm183 697-37 42 142 128 47-55-152-115Z"/><glyph unicode="Ê" glyph-name="Ecircumflex" horiz-adv-x="527" d="M90 0v656h378v-70H173V380h249v-71H173V71h305V0H90Zm88 699-36 26 105 113h86l105-113-36-26-110 93h-4l-110-93Z"/><glyph unicode="Ë" glyph-name="Edieresis" horiz-adv-x="527" d="M90 0v656h378v-70H173V380h249v-71H173V71h305V0H90Zm97 715q-21 0-35 14t-14 35q0 22 14 35t35 14q22 0 35-13t14-36q0-21-13-35t-36-14Zm206 0q-22 0-35 14t-14 35q0 22 13 35t36 14q21 0 35-13t14-36q0-21-14-35t-35-14Z"/><glyph unicode="Ì" glyph-name="Igrave" horiz-adv-x="263" d="M90 0v656h83V0H90Zm59 697L-3 812l47 55 142-128-37-42Z"/><glyph unicode="Í" glyph-name="Iacute" horiz-adv-x="263" d="M90 0v656h83V0H90Zm25 697-37 42 142 128 47-55-152-115Z"/><glyph unicode="Î" glyph-name="Icircumflex" horiz-adv-x="263" d="M90 0v656h83V0H90ZM20 699l-36 26L89 838h86l105-113-36-26-110 93h-4L20 699Z"/><glyph unicode="Ï" glyph-name="Idieresis" horiz-adv-x="263" d="M90 0v656h83V0H90ZM29 715q-21 0-35 14t-14 35q0 22 14 35t35 14q22 0 35-13t14-36q0-21-13-35t-36-14Zm206 0q-22 0-35 14t-14 35q0 22 13 35t36 14q21 0 35-13t14-36q0-21-14-35t-35-14Z"/><glyph unicode="Ð" glyph-name="Eth" horiz-adv-x="638" d="M112 0v321H33v43l79 4v288h164q152 0 231-84t79-241q0-157-78-244T280 0H112Zm83 68h75q115 0 172 69t58 194q0 124-57 190t-173 67h-75V368h149v-47H195V68Z"/><glyph unicode="Ñ" glyph-name="Ntilde" horiz-adv-x="647" d="M90 0v656h86l237-412 71-136h4q-3 50-6 103t-4 106v339h79V0h-86L233 413l-71 135h-4q4-49 7-101t4-104V0H90Zm319 709q-28 0-48 10t-36 25-31 25-33 11q-19 0-32-17t-16-49l-56 4q3 57 30 90t72 33q28 0 48-10t36-25 31-25 33-11q40 0 48 66l56-4q-3-58-30-90t-72-33Z"/><glyph unicode="Ò" glyph-name="Ograve" horiz-adv-x="664" d="M332-12q-82 0-145 42T88 149 52 331q0 105 35 180t99 116 146 41q83 0 146-40t99-116 36-181q0-105-36-182T478 30 332-12Zm0 73q59 0 102 33t68 94 24 143q0 122-53 193t-141 71q-88 0-141-71t-53-193q0-82 24-142t68-94 102-34Zm17 636L197 812l47 55 142-128-37-42Z"/><glyph unicode="Ó" glyph-name="Oacute" horiz-adv-x="664" d="M332-12q-82 0-145 42T88 149 52 331q0 105 35 180t99 116 146 41q83 0 146-40t99-116 36-181q0-105-36-182T478 30 332-12Zm0 73q59 0 102 33t68 94 24 143q0 122-53 193t-141 71q-88 0-141-71t-53-193q0-82 24-142t68-94 102-34Zm-17 636-37 42 142 128 47-55-152-115Z"/><glyph unicode="Ô" glyph-name="Ocircumflex" horiz-adv-x="664" d="M332-12q-82 0-145 42T88 149 52 331q0 105 35 180t99 116 146 41q83 0 146-40t99-116 36-181q0-105-36-182T478 30 332-12Zm0 73q59 0 102 33t68 94 24 143q0 122-53 193t-141 71q-88 0-141-71t-53-193q0-82 24-142t68-94 102-34ZM220 699l-36 26 105 113h86l105-113-36-26-110 93h-4l-110-93Z"/><glyph unicode="Õ" glyph-name="Otilde" horiz-adv-x="664" d="M332-12q-82 0-145 42T88 149 52 331q0 105 35 180t99 116 146 41q83 0 146-40t99-116 36-181q0-105-36-182T478 30 332-12Zm0 73q59 0 102 33t68 94 24 143q0 122-53 193t-141 71q-88 0-141-71t-53-193q0-82 24-142t68-94 102-34Zm75 648q-28 0-48 10t-36 25-31 25-33 11q-19 0-32-17t-16-49l-56 4q3 57 30 90t72 33q28 0 48-10t36-25 31-25 33-11q40 0 48 66l56-4q-3-58-30-90t-72-33Z"/><glyph unicode="Ö" glyph-name="Odieresis" horiz-adv-x="664" d="M332-12q-82 0-145 42T88 149 52 331q0 105 35 180t99 116 146 41q83 0 146-40t99-116 36-181q0-105-36-182T478 30 332-12Zm0 73q59 0 102 33t68 94 24 143q0 122-53 193t-141 71q-88 0-141-71t-53-193q0-82 24-142t68-94 102-34ZM229 715q-21 0-35 14t-14 35q0 22 14 35t35 14q22 0 35-13t14-36q0-21-13-35t-36-14Zm206 0q-22 0-35 14t-14 35q0 22 13 35t36 14q21 0 35-13t14-36q0-21-14-35t-35-14Z"/><glyph unicode="×" glyph-name="multiply" horiz-adv-x="497" d="m94 126-44 45 155 159L50 488l44 45 155-159 154 159 44-45-155-158 155-159-44-45-154 160L94 126Z"/><glyph unicode="Ø" glyph-name="Oslash" horiz-adv-x="664" d="M96-30 50 6l70 91q-31 44-48 103T55 331q0 105 35 180t99 116 146 41q104 0 176-63l62 81 46-35-69-89q32-43 49-101t17-130q0-105-36-182T481 30 335-12q-104 0-175 65L96-30Zm45 361q0-48 8-89t25-74l288 373q-51 54-127 54-88 0-141-71t-53-193ZM335 61q59 0 102 33t68 94 24 143q0 48-8 88t-25 72L209 117q50-56 126-56Z"/><glyph unicode="Ù" glyph-name="Ugrave" horiz-adv-x="645" d="M323-12q-67 0-120 27t-85 89-31 167v385h83V269q0-79 20-124t55-65 78-19q44 0 79 19t55 64 21 125v387h80V271q0-105-31-167t-84-89-120-27Zm16 709L187 812l47 55 142-128-37-42Z"/><glyph unicode="Ú" glyph-name="Uacute" horiz-adv-x="645" d="M323-12q-67 0-120 27t-85 89-31 167v385h83V269q0-79 20-124t55-65 78-19q44 0 79 19t55 64 21 125v387h80V271q0-105-31-167t-84-89-120-27Zm-18 709-37 42 142 128 47-55-152-115Z"/><glyph unicode="Û" glyph-name="Ucircumflex" horiz-adv-x="645" d="M323-12q-67 0-120 27t-85 89-31 167v385h83V269q0-79 20-124t55-65 78-19q44 0 79 19t55 64 21 125v387h80V271q0-105-31-167t-84-89-120-27ZM210 699l-36 26 105 113h86l105-113-36-26-110 93h-4l-110-93Z"/><glyph unicode="Ü" glyph-name="Udieresis" horiz-adv-x="645" d="M323-12q-67 0-120 27t-85 89-31 167v385h83V269q0-79 20-124t55-65 78-19q44 0 79 19t55 64 21 125v387h80V271q0-105-31-167t-84-89-120-27ZM219 715q-21 0-35 14t-14 35q0 22 14 35t35 14q22 0 35-13t14-36q0-21-13-35t-36-14Zm206 0q-22 0-35 14t-14 35q0 22 13 35t36 14q21 0 35-13t14-36q0-21-14-35t-35-14Z"/><glyph unicode="Ý" glyph-name="Yacute" horiz-adv-x="476" d="M196 0v254L-1 656h89l85-185q16-36 31-71t32-72h4q17 37 34 72t32 71l84 185h87L280 254V0h-84Zm25 697-37 42 142 128 47-55-152-115Z"/><glyph unicode="Þ" glyph-name="Thorn" horiz-adv-x="583" d="M90 0v656h83V546h118q73 0 127-18t84-61 31-114q0-104-67-153t-175-50H173V0H90Zm83 218h108q86 0 127 32t42 103q0 71-42 98t-127 27H173V218Z"/><glyph unicode="ß" glyph-name="germandbls" horiz-adv-x="576" d="M387-12q-41 0-75 13t-66 36l33 58q52-43 106-43 41 0 62 24t22 56q0 35-20 56t-49 36-58 31-50 42-20 67q0 34 13 58t31 46 30 45 14 55q0 38-21 62t-62 25q-53 0-83-39t-30-116V0H82v515q0 94 51 150t145 57q53 0 89-20t55-53 19-73q0-37-13-64t-32-48-32-43-14-47q0-29 20-46t49-32 59-33 49-48 20-78q0-63-43-106T387-12Z"/><glyph unicode="à" glyph-name="agrave" horiz-adv-x="504" d="M194-12q-61 0-101 36T52 126q0 80 71 122t227 60q0 31-8 59t-30 45-62 18q-42 0-79-16t-66-36l-32 57q34 22 83 42t108 21q89 0 129-54t40-146V0h-68l-7 58h-3q-34-28-74-49t-87-21Zm24 66q35 0 66 17t66 48v135q-121-15-169-45t-49-77q0-41 25-59t61-19Zm63 519L124 726l58 55 141-167-42-41Z"/><glyph unicode="á" glyph-name="aacute" horiz-adv-x="504" d="M194-12q-61 0-101 36T52 126q0 80 71 122t227 60q0 31-8 59t-30 45-62 18q-42 0-79-16t-66-36l-32 57q34 22 83 42t108 21q89 0 129-54t40-146V0h-68l-7 58h-3q-34-28-74-49t-87-21Zm24 66q35 0 66 17t66 48v135q-121-15-169-45t-49-77q0-41 25-59t61-19Zm35 519-42 41 141 167 58-55-157-153Z"/><glyph unicode="â" glyph-name="acircumflex" horiz-adv-x="504" d="M194-12q-61 0-101 36T52 126q0 80 71 122t227 60q0 31-8 59t-30 45-62 18q-42 0-79-16t-66-36l-32 57q34 22 83 42t108 21q89 0 129-54t40-146V0h-68l-7 58h-3q-34-28-74-49t-87-21Zm24 66q35 0 66 17t66 48v135q-121-15-169-45t-49-77q0-41 25-59t61-19ZM112 600l114 140h82l114-140-35-32-118 113h-4L147 568l-35 32Z"/><glyph unicode="ã" glyph-name="atilde" horiz-adv-x="504" d="M194-12q-61 0-101 36T52 126q0 80 71 122t227 60q0 31-8 59t-30 45-62 18q-42 0-79-16t-66-36l-32 57q34 22 83 42t108 21q89 0 129-54t40-146V0h-68l-7 58h-3q-34-28-74-49t-87-21Zm24 66q35 0 66 17t66 48v135q-121-15-169-45t-49-77q0-41 25-59t61-19Zm121 523q-27 0-46 12t-34 30-31 29-32 13q-22 0-33-22t-14-57l-55 3q2 59 25 97t76 39q27 0 46-12t35-30 30-29 33-13q22 0 33 22t13 57l55-4q-2-58-25-96t-76-39Z"/><glyph unicode="ä" glyph-name="adieresis" horiz-adv-x="504" d="M194-12q-61 0-101 36T52 126q0 80 71 122t227 60q0 31-8 59t-30 45-62 18q-42 0-79-16t-66-36l-32 57q34 22 83 42t108 21q89 0 129-54t40-146V0h-68l-7 58h-3q-34-28-74-49t-87-21Zm24 66q35 0 66 17t66 48v135q-121-15-169-45t-49-77q0-41 25-59t61-19Zm-47 533q-22 0-36 14t-14 36q0 21 14 35t36 15q21 0 35-14t14-36q0-21-14-35t-35-15Zm192 0q-21 0-35 14t-14 36q0 21 14 35t35 15q22 0 36-14t14-36q0-21-14-35t-36-15Z"/><glyph unicode="å" glyph-name="aring" horiz-adv-x="504" d="M194-12q-61 0-101 36T52 126q0 80 71 122t227 60q0 31-8 59t-30 45-62 18q-42 0-79-16t-66-36l-32 57q34 22 83 42t108 21q89 0 129-54t40-146V0h-68l-7 58h-3q-34-28-74-49t-87-21Zm24 66q35 0 66 17t66 48v135q-121-15-169-45t-49-77q0-41 25-59t61-19Zm49 500q-50 0-80 28t-30 71q0 42 30 70t80 28q50 0 80-28t30-70q0-43-30-71t-80-28Zm0 37q24 0 40 17t17 45q0 28-16 44t-41 17q-24 0-40-16t-17-45q0-28 16-45t41-17Z"/><glyph unicode="æ" glyph-name="ae" horiz-adv-x="785" d="M201-12q-61 0-102 36T58 126q0 80 71 122t223 60q0 31-8 59t-29 45-62 18q-40 0-76-16t-65-36l-33 57q34 22 82 42t102 21q54 0 89-28t50-75q29 47 70 75t90 28q89 0 137-62t48-167q0-28-3-46H429q3-76 46-122t105-46q35 0 63 11t55 29l30-57q-31-20-69-35t-89-15q-61 0-102 27t-69 64Q297-12 201-12Zm23 66q34 0 74 19t73 56q-8 19-13 45t-6 55v25q-115-15-164-45t-49-77q0-41 24-59t61-19Zm205 224h246q0 75-29 115t-86 40q-50 0-87-42t-44-113Z"/><glyph unicode="ç" glyph-name="ccedilla" horiz-adv-x="456" d="M274-12q-64 0-116 30t-82 87-30 137q0 82 32 139t86 87 116 30q48 0 82-17t60-40l-42-54q-21 19-44 31t-53 12q-44 0-78-23t-54-66-20-99q0-83 41-134t109-52q34 0 63 14t51 35l36-55q-33-29-73-45t-84-17Zm-95-214-8 40q63 5 86 16t23 34q0 20-17 31t-60 17l44 91h53l-29-67q35-8 54-24t19-47q0-43-42-65t-123-26Z"/><glyph unicode="è" glyph-name="egrave" horiz-adv-x="496" d="M279-12q-65 0-118 30t-84 88-31 136q0 80 31 137t82 88 105 31q93 0 143-62t51-166v-25q0-12-3-22H127q5-77 48-123t114-46q35 0 64 10t57 28l29-54q-31-20-70-35t-90-15ZM126 282h260q0 74-31 112t-89 39q-51 0-91-39t-49-112Zm152 291L121 726l58 55 141-167-42-41Z"/><glyph unicode="é" glyph-name="eacute" horiz-adv-x="496" d="M279-12q-65 0-118 30t-84 88-31 136q0 80 31 137t82 88 105 31q93 0 143-62t51-166v-25q0-12-3-22H127q5-77 48-123t114-46q35 0 64 10t57 28l29-54q-31-20-70-35t-90-15ZM126 282h260q0 74-31 112t-89 39q-51 0-91-39t-49-112Zm124 291-42 41 141 167 58-55-157-153Z"/><glyph unicode="ê" glyph-name="ecircumflex" horiz-adv-x="496" d="M279-12q-65 0-118 30t-84 88-31 136q0 80 31 137t82 88 105 31q93 0 143-62t51-166v-25q0-12-3-22H127q5-77 48-123t114-46q35 0 64 10t57 28l29-54q-31-20-70-35t-90-15ZM126 282h260q0 74-31 112t-89 39q-51 0-91-39t-49-112Zm-17 318 114 140h82l114-140-35-32-118 113h-4L144 568l-35 32Z"/><glyph unicode="ë" glyph-name="edieresis" horiz-adv-x="496" d="M279-12q-65 0-118 30t-84 88-31 136q0 80 31 137t82 88 105 31q93 0 143-62t51-166v-25q0-12-3-22H127q5-77 48-123t114-46q35 0 64 10t57 28l29-54q-31-20-70-35t-90-15ZM126 282h260q0 74-31 112t-89 39q-51 0-91-39t-49-112Zm42 305q-22 0-36 14t-14 36q0 21 14 35t36 15q21 0 35-14t14-36q0-21-14-35t-35-15Zm192 0q-21 0-35 14t-14 36q0 21 14 35t35 15q22 0 36-14t14-36q0-21-14-35t-36-15Z"/><glyph unicode="ì" glyph-name="igrave" horiz-adv-x="246" d="M82 0v486h82V0H82Zm56 573L-19 726l58 55 141-167-42-41Z"/><glyph unicode="í" glyph-name="iacute" horiz-adv-x="246" d="M82 0v486h82V0H82Zm28 573-42 41 141 167 58-55-157-153Z"/><glyph unicode="î" glyph-name="icircumflex" horiz-adv-x="246" d="M82 0v486h82V0H82ZM-31 600 83 740h82l114-140-35-32-118 113h-4L4 568l-35 32Z"/><glyph unicode="ï" glyph-name="idieresis" horiz-adv-x="246" d="M82 0v486h82V0H82ZM28 587q-22 0-36 14t-14 36q0 21 14 35t36 15q21 0 35-14t14-36q0-21-14-35t-35-15Zm192 0q-21 0-35 14t-14 36q0 21 14 35t35 15q22 0 36-14t14-36q0-21-14-35t-36-15Z"/><glyph unicode="ð" glyph-name="eth" horiz-adv-x="545" d="M131 222q0-50 19-87t51-58 70-21q68 0 101 55t34 143v28q0 14-2 27-33 44-66 59t-67 15q-67 0-103-46t-37-115ZM269-12q-56 0-105 28T84 97 53 222q0 68 27 118t74 79 105 28q38 0 73-16t61-50q-13 62-41 108t-66 84l-141-73-24 41 127 65q-52 40-112 72l38 52q36-19 71-41t67-50l142 73 24-41-129-66q60-61 98-145t38-203q0-80-27-140t-75-95-114-34Z"/><glyph unicode="ñ" glyph-name="ntilde" horiz-adv-x="547" d="M82 0v486h68l7-70h3q35 35 74 58t89 24q77 0 112-48t36-142V0h-82v297q0 68-22 99t-70 31q-37 0-66-19t-67-56V0H82Zm285 577q-27 0-46 12t-34 30-31 29-32 13q-22 0-33-22t-14-57l-55 3q2 59 25 97t76 39q27 0 46-12t35-30 30-29 33-13q22 0 33 22t13 57l55-4q-2-58-25-96t-76-39Z"/><glyph unicode="ò" glyph-name="ograve" horiz-adv-x="542" d="M271-12q-59 0-110 30t-83 87-32 137q0 82 31 139t83 87 111 30q60 0 111-30t82-87 32-139q0-80-31-137t-83-87-111-30Zm0 68q63 0 101 51t39 135q0 84-38 136t-102 52q-62 0-101-52t-39-136q0-83 39-134t101-52Zm14 517L128 726l58 55 141-167-42-41Z"/><glyph unicode="ó" glyph-name="oacute" horiz-adv-x="542" d="M271-12q-59 0-110 30t-83 87-32 137q0 82 31 139t83 87 111 30q60 0 111-30t82-87 32-139q0-80-31-137t-83-87-111-30Zm0 68q63 0 101 51t39 135q0 84-38 136t-102 52q-62 0-101-52t-39-136q0-83 39-134t101-52Zm-14 517-42 41 141 167 58-55-157-153Z"/><glyph unicode="ô" glyph-name="ocircumflex" horiz-adv-x="542" d="M271-12q-59 0-110 30t-83 87-32 137q0 82 31 139t83 87 111 30q60 0 111-30t82-87 32-139q0-80-31-137t-83-87-111-30Zm0 68q63 0 101 51t39 135q0 84-38 136t-102 52q-62 0-101-52t-39-136q0-83 39-134t101-52ZM116 600l114 140h82l114-140-35-32-118 113h-4L151 568l-35 32Z"/><glyph unicode="õ" glyph-name="otilde" horiz-adv-x="542" d="M271-12q-59 0-110 30t-83 87-32 137q0 82 31 139t83 87 111 30q60 0 111-30t82-87 32-139q0-80-31-137t-83-87-111-30Zm0 68q63 0 101 51t39 135q0 84-38 136t-102 52q-62 0-101-52t-39-136q0-83 39-134t101-52Zm72 521q-27 0-46 12t-34 30-31 29-32 13q-22 0-33-22t-14-57l-55 3q2 59 25 97t76 39q27 0 46-12t35-30 30-29 33-13q22 0 33 22t13 57l55-4q-2-58-25-96t-76-39Z"/><glyph unicode="ö" glyph-name="odieresis" horiz-adv-x="542" d="M271-12q-59 0-110 30t-83 87-32 137q0 82 31 139t83 87 111 30q60 0 111-30t82-87 32-139q0-80-31-137t-83-87-111-30Zm0 68q63 0 101 51t39 135q0 84-38 136t-102 52q-62 0-101-52t-39-136q0-83 39-134t101-52Zm-96 531q-22 0-36 14t-14 36q0 21 14 35t36 15q21 0 35-14t14-36q0-21-14-35t-35-15Zm192 0q-21 0-35 14t-14 36q0 21 14 35t35 15q22 0 36-14t14-36q0-21-14-35t-36-15Z"/><glyph unicode="÷" glyph-name="divide" horiz-adv-x="497" d="M34 299v62h429v-62H34ZM249 96q-23 0-39 15t-16 39q0 23 16 38t39 15q23 0 38-15t16-38q0-24-15-39t-39-15Zm0 360q-23 0-39 15t-16 39q0 23 16 38t39 15q23 0 38-15t16-38q0-24-15-39t-39-15Z"/><glyph unicode="ø" glyph-name="oslash" horiz-adv-x="542" d="M127 246q0-67 23-113l214 259q-37 40-93 40-41 0-74-23t-51-66-19-97ZM83-23 46 6l54 65q-25 32-39 75t-15 96q0 82 31 139t83 87 111 30q80 0 139-50l50 61 36-29-54-65q25-32 39-75t15-98q0-80-31-137t-83-87-111-30q-79 0-139 49L83-23Zm188 77q63 0 103 51t41 134q0 68-24 114L178 93q39-39 93-39Z"/><glyph unicode="ù" glyph-name="ugrave" horiz-adv-x="544" d="M224-12q-77 0-113 48T75 178v308h83V189q0-68 21-99t70-31q38 0 67 19t64 63v345h82V0h-68l-7 76h-3q-34-40-72-64t-88-24Zm61 585L128 726l58 55 141-167-42-41Z"/><glyph unicode="ú" glyph-name="uacute" horiz-adv-x="544" d="M224-12q-77 0-113 48T75 178v308h83V189q0-68 21-99t70-31q38 0 67 19t64 63v345h82V0h-68l-7 76h-3q-34-40-72-64t-88-24Zm33 585-42 41 141 167 58-55-157-153Z"/><glyph unicode="û" glyph-name="ucircumflex" horiz-adv-x="544" d="M224-12q-77 0-113 48T75 178v308h83V189q0-68 21-99t70-31q38 0 67 19t64 63v345h82V0h-68l-7 76h-3q-34-40-72-64t-88-24ZM116 600l114 140h82l114-140-35-32-118 113h-4L151 568l-35 32Z"/><glyph unicode="ü" glyph-name="udieresis" horiz-adv-x="544" d="M224-12q-77 0-113 48T75 178v308h83V189q0-68 21-99t70-31q38 0 67 19t64 63v345h82V0h-68l-7 76h-3q-34-40-72-64t-88-24Zm-49 599q-22 0-36 14t-14 36q0 21 14 35t36 15q21 0 35-14t14-36q0-21-14-35t-35-15Zm192 0q-21 0-35 14t-14 36q0 21 14 35t35 15q22 0 36-14t14-36q0-21-14-35t-36-15Z"/><glyph unicode="ý" glyph-name="yacute" horiz-adv-x="467" d="M90-209q-16 0-30 3t-27 7l16 65q8-2 18-4t19-3q41 0 68 29t42 75l11 36L12 486h85l99-269q11-31 23-67t24-70h4q11 33 21 69t20 68l87 269h80L272-40q-17-48-40-86t-58-60-84-23Zm139 782-42 41 141 167 58-55-157-153Z"/><glyph unicode="þ" glyph-name="thorn" horiz-adv-x="555" d="M82-205v917h82V519l-1-84q32 26 70 44t78 19q96 0 146-67t50-181q0-82-29-141t-77-90-104-31q-35 0-68 14t-66 40l1-83v-164H82ZM283 57q60 0 99 51t40 142q0 80-29 129t-99 50q-31 0-62-17t-68-49V108q33-28 64-39t55-12Z"/><glyph unicode="ÿ" glyph-name="ydieresis" horiz-adv-x="467" d="M90-209q-16 0-30 3t-27 7l16 65q8-2 18-4t19-3q41 0 68 29t42 75l11 36L12 486h85l99-269q11-31 23-67t24-70h4q11 33 21 69t20 68l87 269h80L272-40q-17-48-40-86t-58-60-84-23Zm57 796q-22 0-36 14t-14 36q0 21 14 35t36 15q21 0 35-14t14-36q0-21-14-35t-35-15Zm192 0q-21 0-35 14t-14 36q0 21 14 35t35 15q22 0 36-14t14-36q0-21-14-35t-36-15Z"/><glyph unicode="–" glyph-name="endash" horiz-adv-x="480" d="M41 223v57h398v-57H41Z"/><glyph unicode="—" glyph-name="emdash" horiz-adv-x="800" d="M41 223v57h718v-57H41Z"/><glyph unicode="‘" glyph-name="quoteleft" horiz-adv-x="249" d="M120 428q-30 0-46 23t-17 67q0 60 27 104t79 74l24-39q-38-25-57-53t-19-71q3 1 9 1 20 0 36-13t17-38q0-25-15-40t-38-15Z"/><glyph unicode="’" glyph-name="quoteright" horiz-adv-x="249" d="m86 431-23 38q38 25 56 53t19 72q-3-1-8-1-21 0-37 13t-16 37q0 26 15 41t38 15q29 0 46-23t17-68q0-60-27-103t-80-74Z"/><glyph unicode="‚" glyph-name="quotesinglbase" horiz-adv-x="249" d="m86-145-23 38q38 25 56 53t19 72q-3-1-8-1-21 0-37 13T77 67q0 26 15 41t38 15q29 0 46-23t17-68q0-60-27-103t-80-74Z"/><glyph unicode="“" glyph-name="quotedblleft" horiz-adv-x="426" d="M120 428q-30 0-46 23t-17 67q0 60 27 104t79 74l24-39q-38-25-57-53t-19-71q3 1 9 1 20 0 36-13t17-38q0-25-15-40t-38-15Zm177 0q-30 0-46 23t-17 67q0 60 27 104t79 74l24-39q-38-25-57-53t-19-71q3 1 9 1 20 0 36-13t17-38q0-25-15-40t-38-15Z"/><glyph unicode="”" glyph-name="quotedblright" horiz-adv-x="426" d="m86 431-23 38q38 25 56 53t19 72q-3-1-8-1-21 0-37 13t-16 37q0 26 15 41t38 15q29 0 46-23t17-68q0-60-27-103t-80-74Zm177 0-23 38q38 25 56 53t19 72q-3-1-8-1-21 0-37 13t-16 37q0 26 15 41t38 15q29 0 46-23t17-68q0-60-27-103t-80-74Z"/><glyph unicode="„" glyph-name="quotedblbase" horiz-adv-x="426" d="m86-145-23 38q38 25 56 53t19 72q-3-1-8-1-21 0-37 13T77 67q0 26 15 41t38 15q29 0 46-23t17-68q0-60-27-103t-80-74Zm177 0-23 38q38 25 56 53t19 72q-3-1-8-1-21 0-37 13t-16 37q0 26 15 41t38 15q29 0 46-23t17-68q0-60-27-103t-80-74Z"/><glyph unicode="•" glyph-name="bullet" horiz-adv-x="304" d="M152 143q-45 0-78 33t-34 87q0 54 33 87t79 34q45 0 78-33t34-88q0-54-33-87t-79-33Z"/><glyph unicode="‹" glyph-name="guilsinglleft" horiz-adv-x="271" d="M181 66 45 221v62l136 155 36-30L99 252 217 94l-36-28Z"/><glyph unicode="›" glyph-name="guilsinglright" horiz-adv-x="271" d="M89 66 54 94l118 158L54 408l35 30 137-155v-62L89 66Z"/></font>
</defs>
</svg>
