<svg aria-hidden="true" style="width:0;height:0;position:absolute;overflow:hidden" xmlns="http://www.w3.org/2000/svg"><defs><symbol id="icon-facebook" viewBox="0 0 32 32"><path d="M22.823 12.272h-4.316v-2.83c0-1.063.704-1.311 1.201-1.311h3.045V3.458l-4.194-.016c-4.656 0-5.716 3.485-5.716 5.716v3.115H10.15v4.815h2.693v13.625h5.664V17.088h3.822l.494-4.815z"/></symbol><symbol id="icon-viber" viewBox="0 0 32 32"><path d="M27.75 3.119C26.956 2.388 23.744.056 16.581.025c0 0-8.444-.506-12.556 3.269C1.737 5.582.931 8.938.844 13.094S.65 25.038 8.157 27.15h.006l-.006 3.225s-.05 1.306.813 1.569c1.037.325 1.65-.669 2.644-1.738a97.604 97.604 0 0 0 1.863-2.106c5.137.431 9.081-.556 9.531-.7 1.038-.337 6.906-1.087 7.856-8.875.988-8.037-.475-13.113-3.113-15.406zm.869 14.819c-.806 6.5-5.563 6.913-6.438 7.194-.375.119-3.844.981-8.2.7 0 0-3.25 3.919-4.262 4.938-.331.331-.694.3-.688-.356 0-.431.025-5.356.025-5.356-.006 0-.006 0 0 0-6.362-1.762-5.987-8.394-5.919-11.863S3.862 6.882 5.8 4.97c3.481-3.156 10.65-2.688 10.65-2.688 6.056.025 8.956 1.85 9.631 2.463 2.231 1.912 3.369 6.488 2.538 13.194zm-8.688-5.051c.025.537-.781.575-.806.037-.069-1.375-.712-2.044-2.038-2.119-.538-.031-.488-.838.044-.806 1.744.094 2.712 1.094 2.8 2.888zm1.269.707c.063-2.65-1.594-4.725-4.738-4.956-.531-.037-.475-.844.056-.806 3.625.262 5.556 2.756 5.488 5.781-.006.537-.819.512-.806-.019zm2.937.837c.006.537-.806.544-.806.006-.038-5.094-3.431-7.869-7.55-7.9-.531-.006-.531-.806 0-.806 4.606.031 8.313 3.213 8.356 8.7zm-.706 6.132v.012c-.675 1.188-1.938 2.5-3.238 2.081l-.012-.019c-1.319-.369-4.425-1.969-6.387-3.531a16.35 16.35 0 0 1-2.65-2.65 20.218 20.218 0 0 1-1.925-2.912c-1.331-2.406-1.625-3.481-1.625-3.481-.419-1.3.887-2.563 2.081-3.237h.012c.575-.3 1.125-.2 1.494.244 0 0 .775.925 1.106 1.381.313.425.731 1.106.95 1.488.381.681.144 1.375-.231 1.662l-.75.6c-.381.306-.331.875-.331.875s1.113 4.206 5.269 5.269c0 0 .569.05.875-.331l.6-.75c.288-.375.981-.613 1.663-.231.919.519 2.087 1.325 2.863 2.056.438.356.538.9.238 1.475z"/></symbol><symbol id="icon-search" viewBox="0 0 32 32"><path d="m28.019 26.544-7.081-7.088a9.488 9.488 0 0 0 2.081-5.944c0-5.256-4.256-9.512-9.5-9.512-5.25 0-9.5 4.263-9.5 9.512s4.256 9.513 9.5 9.513a9.462 9.462 0 0 0 5.969-2.113L26.563 28l1.456-1.456zM7.506 19.538c-1.606-1.606-2.487-3.744-2.487-6.019S5.907 9.107 7.506 7.5 11.25 5 13.519 5c2.269 0 4.406.888 6.012 2.494s2.488 3.744 2.488 6.019-.887 4.412-2.488 6.019a8.455 8.455 0 0 1-6.012 2.494 8.423 8.423 0 0 1-6.013-2.488z"/></symbol><symbol id="icon-instagram" viewBox="0 0 32 32"><path d="M15.915 9.425c-3.951 0-7.224 3.217-7.224 7.224s3.217 7.224 7.224 7.224 7.224-3.273 7.224-7.224-3.273-7.224-7.224-7.224zm0 11.852c-2.54 0-4.628-2.088-4.628-4.628s2.088-4.628 4.628-4.628 4.628 2.088 4.628 4.628-2.088 4.628-4.628 4.628zM25.058 9.256a1.637 1.637 0 1 1-3.274 0 1.637 1.637 0 0 1 3.274 0z"/><path d="M27.654 5.023c-1.467-1.524-3.556-2.314-5.926-2.314H10.102c-4.91 0-8.183 3.273-8.183 8.183v11.57c0 2.427.79 4.515 2.37 6.039 1.524 1.467 3.556 2.201 5.869 2.201h11.513c2.427 0 4.459-.79 5.926-2.201 1.524-1.467 2.314-3.556 2.314-5.982V10.893c0-2.37-.79-4.402-2.258-5.87zm-.225 17.496c0 1.75-.621 3.16-1.637 4.12s-2.427 1.467-4.12 1.467H10.159c-1.693 0-3.104-.508-4.12-1.467-1.016-1.016-1.524-2.427-1.524-4.176v-11.57c0-1.693.508-3.104 1.524-4.12.959-.959 2.427-1.467 4.12-1.467h11.626c1.693 0 3.104.508 4.12 1.524.959 1.016 1.524 2.427 1.524 4.064V22.52z"/></symbol><symbol id="icon-ellipse" viewBox="0 0 32 32"><path fill="#d9d9d9" style="fill:var(--color1,#d9d9d9)" d="M32 16c0 8.837-7.163 16-16 16S0 24.837 0 16 7.163 0 16 0s16 7.163 16 16z"/></symbol><symbol id="icon-basket" viewBox="0 0 32 32"><path d="m23.78 11-1.43-5.73A3.006 3.006 0 0 0 19.44 3h-6.88a3 3 0 0 0-2.905 2.249l-.005.021L8.22 11H2.16l3.93 15.73A3.006 3.006 0 0 0 9 29h14a3 3 0 0 0 2.905-2.249l.005-.021L29.84 11zM15 21v6h-2.17l-1.13-6zm-3.67-2-1.13-6H15v6zM17 21h3.3l-1.13 6H17zm0-2v-6h4.8l-1.13 6zm6.83-6h3.45l-1.5 6H22.7zM11.59 5.76c.111-.44.504-.76.971-.76h.031-.002 6.909a1 1 0 0 1 .969.753l.002.007L21.72 11H10.28zM8.17 13l1.13 6H6.22l-1.5-6zM8 26.24 6.72 21h3l1.12 6H8.971a1 1 0 0 1-.969-.753L8 26.24zm15.94 0c-.109.43-.486.746-.938.76H21.21l1.12-6h3z"/></symbol><symbol id="icon-arrow-right" viewBox="0 0 32 32"><path d="M31.74 16.628a.885.885 0 0 0 0-1.256l-5.657-5.657a.889.889 0 1 0-1.257 1.257l5.029 5.029-5.028 5.028a.89.89 0 0 0 1.257 1.257l5.657-5.657zM0 16.889h31.111v-1.778H0v1.778z"/></symbol><symbol id="icon-arrow-left" viewBox="0 0 32 32"><path d="M.26 15.372a.885.885 0 0 0 0 1.256l5.657 5.657a.89.89 0 0 0 1.257-1.257L2.146 16l5.028-5.028a.889.889 0 0 0-1.258-1.256L.259 15.372zm.629 1.517H32v-1.778H.889v1.778z"/></symbol><symbol id="icon-burger-menu" viewBox="0 0 32 32"><path d="M28 10H4a1 1 0 0 1 0-2h24a1 1 0 0 1 0 2zm0 7H4a1 1 0 0 1 0-2h24a1 1 0 0 1 0 2zm0 7H4a1 1 0 0 1 0-2h24a1 1 0 0 1 0 2z"/></symbol></defs></svg>