<svg aria-hidden="true" style="position: absolute; width: 0; height: 0; overflow: hidden;" version="1.1" xmlns="http://www.w3.org/2000/svg" xmlns:xlink="http://www.w3.org/1999/xlink">
<defs>
<symbol id="icon-facebook" viewBox="0 0 32 32">
<path d="M22.823 12.272h-4.316v-2.83c0-1.063 0.704-1.311 1.201-1.311h3.045v-4.673l-4.194-0.016c-4.656 0-5.716 3.485-5.716 5.716v3.115h-2.693v4.815h2.693v13.625h5.664v-13.625h3.822l0.494-4.815z"></path>
</symbol>
<symbol id="icon-viber" viewBox="0 0 32 32">
<path d="M27.75 3.119c-0.794-0.731-4.006-3.063-11.169-3.094 0 0-8.444-0.506-12.556 3.269-2.288 2.288-3.094 5.644-3.181 9.8s-0.194 11.944 7.313 14.056h0.006l-0.006 3.225s-0.050 1.306 0.813 1.569c1.037 0.325 1.65-0.669 2.644-1.738 0.544-0.587 1.294-1.45 1.863-2.106 5.137 0.431 9.081-0.556 9.531-0.7 1.038-0.337 6.906-1.087 7.856-8.875 0.988-8.037-0.475-13.113-3.113-15.406zM28.619 17.938c-0.806 6.5-5.563 6.913-6.438 7.194-0.375 0.119-3.844 0.981-8.2 0.7 0 0-3.25 3.919-4.262 4.938-0.331 0.331-0.694 0.3-0.688-0.356 0-0.431 0.025-5.356 0.025-5.356-0.006 0-0.006 0 0 0-6.362-1.762-5.987-8.394-5.919-11.863s0.725-6.313 2.663-8.225c3.481-3.156 10.65-2.688 10.65-2.688 6.056 0.025 8.956 1.85 9.631 2.463 2.231 1.912 3.369 6.488 2.538 13.194zM19.931 12.887c0.025 0.537-0.781 0.575-0.806 0.037-0.069-1.375-0.712-2.044-2.038-2.119-0.538-0.031-0.488-0.838 0.044-0.806 1.744 0.094 2.712 1.094 2.8 2.888zM21.2 13.594c0.063-2.65-1.594-4.725-4.738-4.956-0.531-0.037-0.475-0.844 0.056-0.806 3.625 0.262 5.556 2.756 5.488 5.781-0.006 0.537-0.819 0.512-0.806-0.019zM24.137 14.431c0.006 0.537-0.806 0.544-0.806 0.006-0.038-5.094-3.431-7.869-7.55-7.9-0.531-0.006-0.531-0.806 0-0.806 4.606 0.031 8.313 3.213 8.356 8.7zM23.431 20.563v0.012c-0.675 1.188-1.938 2.5-3.238 2.081l-0.012-0.019c-1.319-0.369-4.425-1.969-6.387-3.531-1.012-0.8-1.938-1.744-2.65-2.65-0.644-0.806-1.294-1.762-1.925-2.912-1.331-2.406-1.625-3.481-1.625-3.481-0.419-1.3 0.887-2.563 2.081-3.237h0.012c0.575-0.3 1.125-0.2 1.494 0.244 0 0 0.775 0.925 1.106 1.381 0.313 0.425 0.731 1.106 0.95 1.488 0.381 0.681 0.144 1.375-0.231 1.662l-0.75 0.6c-0.381 0.306-0.331 0.875-0.331 0.875s1.113 4.206 5.269 5.269c0 0 0.569 0.050 0.875-0.331l0.6-0.75c0.288-0.375 0.981-0.613 1.663-0.231 0.919 0.519 2.087 1.325 2.863 2.056 0.438 0.356 0.538 0.9 0.238 1.475z"></path>
</symbol>
<symbol id="icon-search" viewBox="0 0 32 32">
<path d="M28.019 26.544l-7.081-7.088c1.3-1.625 2.081-3.694 2.081-5.944 0-5.256-4.256-9.512-9.5-9.512-5.25 0-9.5 4.263-9.5 9.512s4.256 9.513 9.5 9.513c2.262 0 4.338-0.794 5.969-2.113l7.075 7.088 1.456-1.456zM7.506 19.538c-1.606-1.606-2.487-3.744-2.487-6.019s0.888-4.412 2.487-6.019 3.744-2.5 6.013-2.5c2.269 0 4.406 0.888 6.012 2.494s2.488 3.744 2.488 6.019-0.887 4.412-2.488 6.019c-1.606 1.606-3.744 2.494-6.012 2.494-2.269 0.006-4.406-0.881-6.013-2.488z"></path>
</symbol>
<symbol id="icon-instagram" viewBox="0 0 32 32">
<path d="M15.915 9.425c-3.951 0-7.224 3.217-7.224 7.224s3.217 7.224 7.224 7.224 7.224-3.273 7.224-7.224-3.273-7.224-7.224-7.224zM15.915 21.277c-2.54 0-4.628-2.088-4.628-4.628s2.088-4.628 4.628-4.628 4.628 2.088 4.628 4.628-2.088 4.628-4.628 4.628z"></path>
<path d="M25.058 9.256c0 0.904-0.733 1.637-1.637 1.637s-1.637-0.733-1.637-1.637c0-0.904 0.733-1.637 1.637-1.637s1.637 0.733 1.637 1.637z"></path>
<path d="M27.654 5.023c-1.467-1.524-3.556-2.314-5.926-2.314h-11.626c-4.91 0-8.183 3.273-8.183 8.183v11.57c0 2.427 0.79 4.515 2.37 6.039 1.524 1.467 3.556 2.201 5.869 2.201h11.513c2.427 0 4.459-0.79 5.926-2.201 1.524-1.467 2.314-3.556 2.314-5.982v-11.626c0-2.37-0.79-4.402-2.258-5.87zM27.429 22.519c0 1.75-0.621 3.16-1.637 4.12s-2.427 1.467-4.12 1.467h-11.513c-1.693 0-3.104-0.508-4.12-1.467-1.016-1.016-1.524-2.427-1.524-4.176v-11.57c0-1.693 0.508-3.104 1.524-4.12 0.959-0.959 2.427-1.467 4.12-1.467h11.626c1.693 0 3.104 0.508 4.12 1.524 0.959 1.016 1.524 2.427 1.524 4.064v11.626z"></path>
</symbol>
<symbol id="icon-ellipse" viewBox="0 0 32 32">
<path fill="#d9d9d9" style="fill: var(--color1, #d9d9d9)" d="M32 16c0 8.837-7.163 16-16 16s-16-7.163-16-16c0-8.837 7.163-16 16-16s16 7.163 16 16z"></path>
</symbol>
<symbol id="icon-baket" viewBox="0 0 32 32">
<path d="M23.78 11l-1.43-5.73c-0.338-1.314-1.512-2.27-2.91-2.27-0 0-0 0-0 0h-6.88c-0 0-0 0-0 0-1.398 0-2.572 0.956-2.905 2.249l-0.005 0.021-1.43 5.73h-6.060l3.93 15.73c0.338 1.314 1.512 2.27 2.91 2.27 0 0 0 0 0 0h14c0 0 0 0 0 0 1.398 0 2.572-0.956 2.905-2.249l0.005-0.021 3.93-15.73zM15 21v6h-2.17l-1.13-6zM11.33 19l-1.13-6h4.8v6zM17 21h3.3l-1.13 6h-2.17zM17 19v-6h4.8l-1.13 6zM23.83 13h3.45l-1.5 6h-3.080zM11.59 5.76c0.111-0.44 0.504-0.76 0.971-0.76 0.010 0 0.020 0 0.031 0l-0.002-0h6.88c0.009-0 0.019-0 0.029-0 0.467 0 0.86 0.32 0.969 0.753l0.002 0.007 1.25 5.24h-11.44zM8.17 13l1.13 6h-3.080l-1.5-6zM8 26.24l-1.28-5.24h3l1.12 6h-1.84c-0.009 0-0.019 0-0.029 0-0.467 0-0.86-0.32-0.969-0.753l-0.002-0.007zM23.94 26.24c-0.109 0.43-0.486 0.746-0.938 0.76l-0.002 0h-1.79l1.12-6h3z"></path>
</symbol>
<symbol id="icon-arrow-right" viewBox="0 0 32 32">
<path d="M31.74 16.628c0.161-0.161 0.26-0.383 0.26-0.628s-0.099-0.468-0.26-0.628l-5.657-5.657c-0.162-0.167-0.388-0.271-0.639-0.271-0.491 0-0.889 0.398-0.889 0.889 0 0.251 0.104 0.477 0.271 0.639l5.029 5.029-5.028 5.028c-0.154 0.16-0.25 0.378-0.25 0.618 0 0.491 0.398 0.889 0.889 0.889 0.24 0 0.458-0.095 0.618-0.25l5.657-5.657zM0 16.889h31.111v-1.778h-31.111v1.778z"></path>
</symbol>
<symbol id="icon-arrow-left" viewBox="0 0 32 32">
<path  d="M0.26 15.372c-0.161 0.161-0.26 0.383-0.26 0.628s0.099 0.468 0.26 0.628l5.657 5.657c0.16 0.154 0.378 0.25 0.618 0.25 0.491 0 0.889-0.398 0.889-0.889 0-0.24-0.095-0.458-0.25-0.618l-5.028-5.028 5.028-5.028c0.149-0.159 0.24-0.373 0.24-0.608 0-0.491-0.398-0.889-0.889-0.889-0.236 0-0.45 0.092-0.609 0.241l0-0-5.657 5.656zM0.889 16.889h31.111v-1.778h-31.111v1.778z"></path>
</symbol>
<symbol id="icon-burger-menu" viewBox="0 0 32 32">
<path d="M28 10h-24c-0.552 0-1-0.448-1-1s0.448-1 1-1v0h24c0.552 0 1 0.448 1 1s-0.448 1-1 1v0zM28 17h-24c-0.552 0-1-0.448-1-1s0.448-1 1-1v0h24c0.552 0 1 0.448 1 1s-0.448 1-1 1v0zM28 24h-24c-0.552 0-1-0.448-1-1s0.448-1 1-1v0h24c0.552 0 1 0.448 1 1s-0.448 1-1 1v0z"></path>
</symbol>
</defs>
</svg>
